<svg version="1.2" baseProfile="tiny-ps" xmlns="http://www.w3.org/2000/svg" viewBox="0 0 64 64" width="64" height="64">
	<title>cat-svg</title>
	<style>
		tspan { white-space:pre }
		.shp0 { fill: #d11000 } 
	</style>
	<path id="Layer" class="shp0" d="M36.6 23.67C37.12 23.67 37.54 23.26 37.54 22.74L37.54 20.91C37.54 20.39 37.12 19.97 36.6 19.97C36.08 19.97 35.66 20.39 35.66 20.91L35.66 22.74C35.66 23.26 36.08 23.67 36.6 23.67Z" />
	<path id="Layer" class="shp0" d="M35.35 26.37L37.85 26.37C38.37 26.37 38.79 25.95 38.79 25.43C38.79 24.91 38.37 24.49 37.85 24.49L35.35 24.49C34.84 24.49 34.42 24.91 34.42 25.43C34.42 25.95 34.84 26.37 35.35 26.37Z" />
	<path id="Layer" class="shp0" d="M17.77 23.67C18.29 23.67 18.71 23.26 18.71 22.74L18.71 20.91C18.71 20.39 18.29 19.97 17.77 19.97C17.25 19.97 16.83 20.39 16.83 20.91L16.83 22.74C16.83 23.26 17.25 23.67 17.77 23.67Z" />
	<path id="Layer" class="shp0" d="M16.52 26.37L19.01 26.37C19.53 26.37 19.95 25.95 19.95 25.43C19.95 24.91 19.53 24.49 19.01 24.49L16.52 24.49C16 24.49 15.58 24.91 15.58 25.43C15.58 25.95 16 26.37 16.52 26.37Z" />
	<path id="Layer" class="shp0" d="M27.18 26.26C28.11 26.26 28.98 25.87 29.58 25.2C29.92 24.81 29.88 24.22 29.49 23.87C29.1 23.53 28.5 23.57 28.16 23.96C27.93 24.23 27.57 24.39 27.18 24.39C26.8 24.39 26.44 24.23 26.21 23.96C25.87 23.57 25.27 23.53 24.88 23.87C24.49 24.22 24.45 24.81 24.79 25.2C25.39 25.87 26.26 26.26 27.18 26.26Z" />
	<path id="Layer" fill-rule="evenodd" class="shp0" d="M6.38 17.77C2.63 11.88 3.19 5.81 3.87 2.67C4.17 1.28 5.34 0.24 6.77 0.09C7.33 0.03 7.89 0 8.43 0C13.3 0 16.43 2.29 17.61 3.33C20.55 1.88 23.85 1.08 27.18 1.08C30.52 1.08 33.82 1.88 36.76 3.33C37.94 2.29 41.07 0 45.94 0C46.48 0 47.04 0.03 47.6 0.09C49.03 0.24 50.2 1.28 50.5 2.67C51.18 5.81 51.74 11.88 47.99 17.77C48.51 19.94 48.78 22.27 48.78 24.73C48.78 30.52 46.49 34.68 41.97 37.1C40.77 37.74 39.43 38.26 37.91 38.67C38.18 40.29 38.98 41.9 39.83 43.6C40.8 45.54 41.88 47.71 42.24 50.17C43.57 48.92 44.07 46.86 44.79 43.86C45.4 41.29 46.1 38.38 47.64 35.6C49.44 32.35 52.05 29.92 55.61 28.15C55.62 28.15 55.63 28.15 55.64 28.14C57.34 27.32 59.44 28.05 60.27 29.73C60.28 29.74 60.28 29.75 60.29 29.76C61.11 31.46 60.38 33.56 58.69 34.39C57.05 35.2 55.77 36.2 54.76 37.45C54.43 37.85 53.84 37.91 53.44 37.59C53.04 37.26 52.98 36.67 53.3 36.27C54.48 34.81 55.97 33.64 57.86 32.71C58.65 32.32 58.98 31.35 58.59 30.56C58.2 29.78 57.23 29.45 56.44 29.84C53.23 31.42 50.89 33.61 49.28 36.51C47.86 39.07 47.2 41.84 46.61 44.29C45.74 47.94 45.04 50.87 42.35 52.41C42.33 52.8 42.29 53.18 42.23 53.56C42.1 54.44 41.88 55.31 41.54 56.19C43.61 55.59 45.23 54.57 46.47 53.09C48.33 50.87 49.04 47.9 49.73 45.04C50.16 43.25 50.6 41.4 51.32 39.67C51.51 39.19 52.06 38.97 52.54 39.17C53.02 39.37 53.25 39.91 53.05 40.39C52.39 41.98 51.98 43.68 51.55 45.48C50.81 48.55 50.05 51.73 47.9 54.3C46.12 56.43 43.7 57.75 40.53 58.35C39.83 59.59 38.94 60.86 37.85 62.15C36.86 63.33 35.4 64 33.85 64L20.52 64C18.97 64 17.51 63.33 16.52 62.15C14.79 60.1 13.59 58.16 12.85 56.23C12.66 55.75 12.91 55.21 13.39 55.02C13.87 54.84 14.42 55.08 14.6 55.56C15.25 57.27 16.38 59.08 17.95 60.94C18.58 61.69 19.52 62.13 20.52 62.13L21.18 62.13C18.71 56.82 19.43 50.3 19.46 50C19.52 49.49 19.98 49.12 20.5 49.18C21.01 49.24 21.38 49.7 21.32 50.22C21.31 50.31 20.56 57.22 23.28 62.13L26.25 62.13L26.25 50.11C26.25 49.59 26.67 49.17 27.18 49.17C27.7 49.17 28.12 49.59 28.12 50.11L28.12 62.13L31.09 62.13C33.82 57.2 33.06 50.29 33.05 50.22C32.99 49.7 33.36 49.24 33.87 49.18C34.39 49.12 34.85 49.49 34.91 50C34.95 50.3 35.66 56.82 33.19 62.13L33.85 62.13C34.85 62.13 35.79 61.69 36.42 60.94C38.79 58.13 40.11 55.51 40.42 52.99C40.48 52.52 40.5 52.04 40.49 51.56C40.41 48.95 39.26 46.65 38.15 44.43C37.26 42.64 36.4 40.94 36.08 39.1C34.52 39.4 32.8 39.6 30.88 39.72C28.42 39.86 25.95 39.86 23.49 39.72C21.58 39.6 19.85 39.4 18.29 39.1C17.97 40.94 17.11 42.64 16.22 44.43C15.03 46.81 13.8 49.27 13.88 52.12C13.9 52.64 13.49 53.07 12.97 53.09C12.46 53.1 12.02 52.69 12.01 52.18C11.91 48.85 13.31 46.06 14.54 43.6C15.39 41.9 16.19 40.29 16.46 38.67C14.94 38.26 13.6 37.74 12.4 37.1C7.88 34.68 5.59 30.52 5.59 24.73C5.59 22.27 5.86 19.94 6.38 17.77ZM27.18 2.96C22.14 2.96 17.09 4.95 13.52 8.53C9.25 12.8 7.47 18.8 7.47 24.73C7.47 29.85 9.37 33.35 13.29 35.45C16.86 37.36 21.09 37.78 25.08 37.91C25.11 37.91 29.26 37.91 29.29 37.91C33.27 37.78 37.51 37.36 41.08 35.45C45 33.35 46.9 29.85 46.9 24.73C46.9 18.33 44.72 11.66 39.69 7.46C36.25 4.59 31.76 2.96 27.18 2.96ZM38.53 4.31C39.11 4.67 39.67 5.06 40.21 5.48C41.37 4.72 43.3 3.81 45.96 3.81L46.07 3.81C46.53 3.82 46.92 4.15 46.99 4.61C47.29 6.62 47.39 9.65 46.21 12.83C46.46 13.33 46.69 13.85 46.9 14.37C46.97 14.57 47.21 15.18 47.25 15.29C49.7 10.45 49.23 5.66 48.67 3.07C48.54 2.47 48.03 2.02 47.4 1.95C46.91 1.9 46.42 1.88 45.94 1.88C42.29 1.88 39.77 3.35 38.53 4.31ZM45.23 5.72C43.72 5.83 42.53 6.31 41.73 6.76C41.74 6.77 41.76 6.79 41.78 6.81C42.29 7.29 42.78 7.8 43.23 8.33C43.85 9.04 44.42 9.79 44.93 10.58C45.36 8.77 45.37 7.07 45.23 5.72ZM7.12 15.29C7.16 15.17 7.39 14.57 7.47 14.38C7.68 13.85 7.91 13.33 8.16 12.83C6.98 9.65 7.08 6.62 7.38 4.61C7.45 4.15 7.84 3.82 8.3 3.81L8.41 3.81C11.07 3.81 13 4.72 14.16 5.48C14.7 5.06 15.26 4.67 15.84 4.31C14.58 3.36 12.05 1.88 8.43 1.88C7.95 1.88 7.46 1.9 6.97 1.95C6.34 2.02 5.83 2.47 5.7 3.07C5.14 5.66 4.67 10.45 7.12 15.29ZM9.44 10.58C10.24 9.35 11.18 8.2 12.23 7.16C12.36 7.02 12.5 6.89 12.64 6.76C11.84 6.31 10.65 5.83 9.14 5.71C9 7.07 9.01 8.77 9.44 10.58Z" />
</svg>