<svg version="1.2" baseProfile="tiny-ps" xmlns="http://www.w3.org/2000/svg" viewBox="0 0 64 64" width="64" height="64">
	<title>dog-svg</title>
	<defs>
		<clipPath clipPathUnits="userSpaceOnUse" id="cp1">
			<path d="M0 0L64 0L64 64L0 64L0 0Z" />
		</clipPath>
	</defs>
	<style>
		tspan { white-space:pre }
		.shp0 { fill: #d11000 } 
	</style>
	<g id="Clip-Path" clip-path="url(#cp1)">
		<g id="Layer">
			<path id="Layer" class="shp0" d="M14.46 38.29C14.98 38.55 15.62 38.34 15.88 37.81C16.15 37.29 15.94 36.65 15.42 36.38C15.26 36.3 11.61 34.36 10.65 28.62C10.57 28.15 10.19 27.79 9.71 27.74C9.23 27.69 8.79 27.96 8.61 28.4C6.29 34.19 10.66 40.84 10.85 41.13C11.05 41.43 11.39 41.6 11.73 41.6C11.94 41.6 12.14 41.54 12.32 41.42C12.81 41.09 12.95 40.43 12.62 39.94C12.59 39.9 10.79 37.14 10.23 33.89C11.99 37.02 14.32 38.22 14.46 38.29Z" />
			<path id="Layer" class="shp0" d="M19.41 40.51C19.99 40.4 20.36 39.83 20.25 39.26C20.13 38.68 19.57 38.3 18.99 38.42C16.85 38.85 12.8 41.18 12.8 46.93C12.8 51.11 13.67 54 14.35 55.61C12.01 56.07 10.67 57.54 10.67 59.73C10.67 62.21 12.91 64 16 64L17.07 64C18.84 64 19.92 62.67 20.04 62.52C20.4 62.06 20.32 61.39 19.86 61.03C19.39 60.66 18.72 60.75 18.36 61.21C18.35 61.22 17.81 61.87 17.07 61.87L16 61.87C14.41 61.87 12.8 61.13 12.8 59.73C12.8 59.21 12.8 57.6 16 57.6C16.39 57.6 16.75 57.38 16.94 57.04C17.12 56.69 17.1 56.27 16.89 55.95C16.87 55.92 14.93 52.88 14.93 46.93C14.93 41.52 19.23 40.55 19.41 40.51Z" />
			<path id="Layer" class="shp0" d="M49.65 55.61C50.33 54 51.2 51.11 51.2 46.93C51.2 41.18 47.15 38.85 45.01 38.42C44.43 38.31 43.87 38.68 43.75 39.26C43.64 39.83 44.01 40.4 44.59 40.51C44.77 40.55 49.07 41.47 49.07 46.93C49.07 52.88 47.13 55.92 47.11 55.94C46.9 56.27 46.87 56.69 47.06 57.04C47.24 57.38 47.61 57.6 48 57.6C51.2 57.6 51.2 59.21 51.2 59.73C51.2 61.13 49.59 61.87 48 61.87L46.93 61.87C46.2 61.87 45.66 61.23 45.63 61.2C45.27 60.75 44.61 60.67 44.14 61.03C43.68 61.39 43.6 62.06 43.96 62.52C44.08 62.67 45.16 64 46.93 64L48 64C51.09 64 53.33 62.21 53.33 59.73C53.33 57.54 51.99 56.07 49.65 55.61Z" />
			<path id="Layer" class="shp0" d="M38.58 55.55L40.52 43.91C40.62 43.33 40.22 42.78 39.64 42.68C39.06 42.59 38.51 42.98 38.41 43.56L36.43 55.47L36.27 55.47C35.68 55.47 35.2 55.94 35.2 56.53C35.2 57.12 35.68 57.6 36.27 57.6L37.33 57.6C40.53 57.6 40.53 59.21 40.53 59.73C40.53 61.13 38.92 61.87 37.33 61.87L36.27 61.87C34.5 61.87 33.07 60.43 33.07 58.67L33.07 43.73C33.07 43.14 32.59 42.67 32 42.67C31.41 42.67 30.93 43.14 30.93 43.73L30.93 58.67C30.93 60.43 29.5 61.87 27.73 61.87L26.67 61.87C25.08 61.87 23.47 61.13 23.47 59.73C23.47 59.21 23.47 57.6 26.67 57.6L27.73 57.6C28.32 57.6 28.8 57.12 28.8 56.53C28.8 55.94 28.32 55.47 27.73 55.47L27.57 55.47L25.59 43.56C25.49 42.98 24.94 42.59 24.36 42.68C23.78 42.78 23.38 43.33 23.48 43.91L25.42 55.55C22.84 55.91 21.33 57.41 21.33 59.73C21.33 62.21 23.58 64 26.67 64L27.73 64C29.48 64 31.03 63.16 32 61.86C32.97 63.16 34.52 64 36.27 64L37.33 64C40.42 64 42.67 62.21 42.67 59.73C42.67 57.41 41.16 55.91 38.58 55.55Z" />
			<path id="Layer" fill-rule="evenodd" class="shp0" d="M59.73 13.87C59.73 16.81 57.34 19.2 54.4 19.2C51.68 19.2 50.54 17.47 49.52 15.94L44.98 9.13C44.65 8.63 44.78 7.97 45.27 7.65C45.77 7.32 46.43 7.45 46.75 7.94L51.3 14.77C52.3 16.28 52.9 17.07 54.4 17.07C56.16 17.07 57.6 15.63 57.6 13.87C57.6 12.76 57.21 11.2 56.65 10.08C54.54 5.87 49.46 2.13 46.93 2.13C46.02 2.13 43.32 4.25 41.06 6.45C45.06 11.11 46.93 18.91 46.93 26.67C46.93 36.52 42.61 40.53 32 40.53C21.39 40.53 17.07 36.52 17.07 26.67C17.07 18.91 18.94 11.11 22.94 6.45C20.68 4.25 17.98 2.13 17.07 2.13C14.54 2.13 9.46 5.87 7.35 10.08C6.79 11.2 6.4 12.76 6.4 13.87C6.4 15.63 7.84 17.07 9.6 17.07C11.05 17.07 11.66 16.27 12.62 14.86C12.75 14.68 12.87 14.5 13 14.32L17.25 7.94C17.57 7.45 18.23 7.32 18.73 7.65C19.22 7.97 19.35 8.63 19.02 9.13L14.75 15.53C14.62 15.72 14.5 15.89 14.39 16.06C13.44 17.46 12.25 19.2 9.6 19.2C6.66 19.2 4.27 16.81 4.27 13.87C4.27 12.44 4.74 10.53 5.45 9.12C7.79 4.43 13.44 0 17.07 0C19.13 0 22.67 3.19 24.45 4.93C26.51 3.17 29.01 2.13 32 2.13C34.99 2.13 37.49 3.17 39.55 4.93C41.33 3.19 44.87 0 46.93 0C50.56 0 56.21 4.43 58.55 9.12C59.26 10.53 59.73 12.44 59.73 13.87ZM32 4.27C23.16 4.27 19.2 15.52 19.2 26.67C19.2 35.33 22.55 38.4 32 38.4C41.45 38.4 44.8 35.33 44.8 26.67C44.8 15.52 40.84 4.27 32 4.27Z" />
			<path id="Layer" fill-rule="evenodd" class="shp0" d="M38.89 31.05C39.41 31.32 39.62 31.96 39.35 32.49C38.52 34.09 36.49 34.13 36.27 34.13C34.61 34.13 33.01 33.19 32 31.83C30.99 33.19 29.39 34.13 27.73 34.13C27.51 34.13 25.5 34.09 24.66 32.5C24.38 31.98 24.58 31.33 25.1 31.06C25.62 30.78 26.27 30.98 26.54 31.5C26.74 31.87 27.43 32 27.74 32C28.98 32 30.27 30.94 30.74 29.71C28.99 29.32 27.73 28.13 27.73 26.67C27.73 24.87 29.61 23.47 32 23.47C34.39 23.47 36.27 24.87 36.27 26.67C36.27 28.13 35.01 29.32 33.26 29.71C33.73 30.94 35.02 32 36.27 32C36.56 32 37.27 31.87 37.45 31.51C37.72 30.99 38.36 30.78 38.89 31.05ZM34.13 26.67C34.13 26.23 33.3 25.6 32 25.6C30.72 25.6 29.87 26.24 29.87 26.67C29.87 27.09 30.72 27.73 32 27.73C33.3 27.73 34.13 27.1 34.13 26.67Z" />
			<path id="Layer" class="shp0" d="M36.8 19.2C37.68 19.2 38.4 18.48 38.4 17.6C38.4 16.72 37.68 16 36.8 16C35.92 16 35.2 16.72 35.2 17.6C35.2 18.48 35.92 19.2 36.8 19.2Z" />
			<path id="Layer" class="shp0" d="M27.2 19.2C28.08 19.2 28.8 18.48 28.8 17.6C28.8 16.72 28.08 16 27.2 16C26.32 16 25.6 16.72 25.6 17.6C25.6 18.48 26.32 19.2 27.2 19.2Z" />
		</g>
	</g>
</svg>