<svg version="1.2" baseProfile="tiny-ps" xmlns="http://www.w3.org/2000/svg" viewBox="0 0 64 64" width="64" height="64">
	<title>hamster-svg</title>
	<defs>
		<clipPath clipPathUnits="userSpaceOnUse" id="cp1">
			<path d="M0 0L64 0L64 64L0 64L0 0Z" />
		</clipPath>
	</defs>
	<style>
		tspan { white-space:pre }
		.shp0 { fill: #d11000 } 
	</style>
	<g id="Clip-Path" clip-path="url(#cp1)">
		<g id="Layer">
			<path id="Layer" fill-rule="evenodd" class="shp0" d="M28.8 19.57C28.8 21.23 27.45 22.58 25.79 22.58C24.13 22.58 22.78 21.23 22.78 19.57C22.78 17.91 24.13 16.56 25.79 16.56C27.45 16.56 28.8 17.91 28.8 19.57ZM26.92 19.57C26.92 18.94 26.41 18.44 25.79 18.44C25.16 18.44 24.65 18.94 24.65 19.57C24.65 20.19 25.16 20.7 25.79 20.7C26.41 20.7 26.92 20.19 26.92 19.57Z" />
			<path id="Layer" fill-rule="evenodd" class="shp0" d="M41.22 19.57C41.22 21.23 39.87 22.58 38.21 22.58C36.55 22.58 35.2 21.23 35.2 19.57C35.2 17.91 36.55 16.56 38.21 16.56C39.87 16.56 41.22 17.91 41.22 19.57ZM39.35 19.57C39.35 18.94 38.84 18.44 38.21 18.44C37.59 18.44 37.08 18.94 37.08 19.57C37.08 20.19 37.59 20.7 38.21 20.7C38.84 20.7 39.35 20.19 39.35 19.57Z" />
			<path id="Layer" fill-rule="evenodd" class="shp0" d="M55.36 63.17C54.99 63.69 54.38 64 53.74 64L39.58 64C38.57 64 37.58 63.84 36.62 63.52L34.37 62.77C32.84 62.26 31.16 62.26 29.63 62.77L27.38 63.52C26.43 63.84 25.43 64 24.42 64L10.26 64C9.62 64 9.01 63.69 8.64 63.17C8.28 62.65 8.18 61.98 8.39 61.38C9.11 59.35 11.03 57.98 13.19 57.98L14.32 57.98C13.54 55.95 13.47 53.66 14.21 51.55L14.7 50.13C14.87 49.64 15.4 49.39 15.89 49.55C16.38 49.72 16.64 50.26 16.47 50.75L15.98 52.16C15.04 54.86 15.74 57.91 17.76 59.93C19.18 61.34 21.07 62.13 23.07 62.13L24.42 62.13C25.23 62.13 26.02 62 26.79 61.74L29.03 60.99C30.95 60.35 33.05 60.35 34.97 60.99L37.21 61.74C37.98 62 38.78 62.13 39.58 62.13L40.93 62.13C42.93 62.13 44.82 61.34 46.24 59.93C48.26 57.91 48.96 54.86 48.02 52.16L43.83 40.07C40.95 40.84 37.04 41.22 32 41.22C26.96 41.22 23.05 40.84 20.17 40.07L17.77 47C17.63 47.38 17.27 47.63 16.88 47.63C16.78 47.63 16.68 47.61 16.57 47.58C16.08 47.41 15.83 46.87 15.99 46.38L18.38 39.49C17.86 39.29 17.39 39.07 16.96 38.83C16.62 38.66 16.28 38.46 15.95 38.25C15.52 37.96 15.4 37.38 15.68 36.95C15.97 36.51 16.55 36.39 16.98 36.68C17.25 36.86 17.54 37.02 17.83 37.17C17.85 37.18 17.87 37.19 17.89 37.2C20.45 38.62 25.2 39.34 32 39.34C38.8 39.34 43.55 38.62 46.11 37.2C46.13 37.19 46.15 37.18 46.17 37.17C48.99 35.76 50.74 32.93 50.74 29.79C50.74 28.45 50.43 27.17 49.83 26.02L48.16 27.58C47.33 28.36 46.24 28.79 45.1 28.79L42.79 28.79C41.59 28.79 40.47 28.33 39.62 27.48C39.13 26.99 38.48 26.72 37.79 26.72L36.43 26.72C36.16 27.07 35.81 27.34 35.39 27.51L32.94 28.49L32.94 30.96C32.94 30.99 32.94 31.03 32.93 31.06L34.55 31.06C35.48 31.06 36.24 30.3 36.24 29.37C36.24 28.86 36.66 28.44 37.18 28.44C37.7 28.44 38.12 28.86 38.12 29.37C38.12 31.23 36.69 32.75 34.88 32.92L34.52 35.19C34.34 36.29 33.41 37.08 32.3 37.08L31.7 37.08C30.59 37.08 29.66 36.29 29.48 35.2L29.12 32.92C27.31 32.75 25.89 31.23 25.89 29.37C25.89 28.86 26.3 28.44 26.82 28.44C27.34 28.44 27.76 28.86 27.76 29.37C27.76 30.3 28.52 31.06 29.45 31.06L31.07 31.06C31.06 31.03 31.06 30.99 31.06 30.96L31.06 28.49L28.61 27.51C28.19 27.34 27.84 27.07 27.57 26.72L26.22 26.72C25.52 26.72 24.87 26.99 24.38 27.48C23.53 28.33 22.41 28.79 21.22 28.79L18.9 28.79C17.76 28.79 16.67 28.36 15.84 27.58L14.17 26.02C13.58 27.17 13.26 28.45 13.26 29.79C13.26 31.39 13.72 32.95 14.6 34.28C14.88 34.72 14.76 35.3 14.32 35.58C14.17 35.69 13.99 35.73 13.81 35.73C13.51 35.73 13.21 35.58 13.03 35.31C11.95 33.67 11.39 31.76 11.39 29.79C11.39 27.52 12.12 25.38 13.51 23.59C14.7 22.06 15.52 20.27 15.88 18.43C16.03 17.68 16.36 16.61 16.64 15.82C15.39 15.31 13.36 14.1 12.73 11.49C11.94 8.25 14.14 4.91 16.46 2.86C19.17 0.47 22.31 -0.54 24.46 0.28C25.8 0.79 26.67 1.63 27.06 2.77C27.31 3.51 27.31 4.27 27.19 4.97C28.72 4.29 30.36 3.93 32 3.93C33.64 3.93 35.28 4.29 36.81 4.97C36.69 4.28 36.69 3.51 36.94 2.77C37.33 1.63 38.2 0.79 39.54 0.28C41.69 -0.54 44.83 0.47 47.54 2.86C49.86 4.91 52.07 8.25 51.28 11.49C50.64 14.1 48.62 15.31 47.36 15.82C47.64 16.62 47.98 17.69 48.12 18.43C48.48 20.27 49.3 22.06 50.5 23.59C51.88 25.38 52.61 27.52 52.61 29.79C52.61 33.64 50.48 37.1 47.04 38.83C46.61 39.07 46.14 39.29 45.62 39.49L49.79 51.54C50.53 53.66 50.46 55.95 49.68 57.98L50.81 57.98C52.97 57.98 54.89 59.35 55.61 61.38C55.82 61.98 55.73 62.65 55.36 63.17ZM32.67 34.89L32.98 32.93L31.02 32.93L31.33 34.9C31.36 35.07 31.51 35.2 31.7 35.2L32.3 35.2C32.49 35.2 32.64 35.07 32.67 34.89ZM46.3 4.26C45.47 3.54 44.61 2.96 43.77 2.55C43.52 2.66 43.3 2.8 43.08 2.97C41.32 4.39 42.7 7.55 43.76 9.42C43.77 9.41 43.78 9.4 43.79 9.39C44.12 9.06 44.73 8.67 45.71 8.7C46.5 8.73 47.2 9.05 47.74 9.64C48.36 10.31 48.72 11.3 48.68 12.22C48.67 12.38 48.66 12.53 48.63 12.68C48.99 12.25 49.29 11.71 49.45 11.05C49.94 9.05 48.7 6.38 46.3 4.26ZM14.55 11.05C14.71 11.72 15.01 12.25 15.37 12.68C15.35 12.53 15.33 12.38 15.32 12.22C15.28 11.3 15.64 10.31 16.26 9.64C16.81 9.05 17.51 8.73 18.29 8.7C19.27 8.67 19.88 9.06 20.22 9.39C20.23 9.4 20.23 9.41 20.24 9.42C21.3 7.55 22.68 4.39 20.92 2.97C20.71 2.8 20.48 2.66 20.23 2.55C19.39 2.96 18.53 3.54 17.7 4.26C15.3 6.38 14.06 9.05 14.55 11.05ZM48.78 24.43C47.54 22.73 46.67 20.79 46.28 18.79C46.07 17.71 45.38 15.82 45.29 15.6C45.12 15.2 45.24 14.74 45.58 14.48C45.66 14.42 46.75 13.49 46.81 12.14C46.82 11.71 46.65 11.22 46.36 10.91C46.16 10.7 45.93 10.59 45.65 10.58C45.27 10.56 45.14 10.69 45.1 10.73C44.89 10.93 44.85 11.34 44.85 11.41C44.86 11.82 44.6 12.18 44.21 12.31C43.83 12.44 43.4 12.31 43.16 11.98C42.95 11.7 38.27 5.23 41.51 1.88C41.03 1.84 40.58 1.89 40.21 2.03C39.41 2.34 38.92 2.78 38.72 3.37C38.34 4.5 39.02 5.95 39.27 6.42C39.44 6.53 39.62 6.66 39.81 6.8C40.22 7.11 40.31 7.7 40 8.11C39.69 8.53 39.1 8.62 38.69 8.31C37.94 7.75 37.42 7.43 37.31 7.36C37.3 7.36 37.29 7.35 37.28 7.34C35.63 6.32 33.86 5.8 32 5.8C30.14 5.8 28.37 6.32 26.72 7.34C26.72 7.35 26.71 7.35 26.71 7.35C26.7 7.36 26.15 7.69 25.31 8.31C25.14 8.43 24.95 8.49 24.75 8.49C24.47 8.49 24.18 8.36 24 8.12C23.69 7.7 23.78 7.11 24.19 6.8C24.39 6.66 24.57 6.53 24.73 6.41C25.07 5.79 25.64 4.4 25.28 3.36C25.08 2.77 24.59 2.34 23.8 2.03C23.42 1.89 22.98 1.84 22.49 1.88C25.74 5.23 21.05 11.7 20.84 11.98C20.6 12.31 20.18 12.44 19.79 12.31C19.4 12.18 19.14 11.82 19.15 11.41C19.15 11.3 19.1 10.92 18.9 10.73C18.86 10.69 18.73 10.56 18.35 10.58C18.07 10.59 17.84 10.7 17.64 10.91C17.36 11.22 17.18 11.71 17.2 12.14C17.26 13.54 18.41 14.48 18.43 14.49C18.43 14.49 18.44 14.49 18.44 14.5C18.76 14.76 18.88 15.21 18.71 15.6C18.62 15.82 17.93 17.71 17.72 18.79C17.33 20.79 16.47 22.73 15.22 24.43L17.12 26.21C17.61 26.67 18.24 26.92 18.9 26.92L21.22 26.92C21.91 26.92 22.56 26.65 23.05 26.16C23.9 25.31 25.02 24.85 26.22 24.85L27.1 24.85C27.18 24.34 27.41 23.87 27.79 23.49C28.25 23.03 28.87 22.77 29.52 22.77L34.48 22.77C35.13 22.77 35.75 23.03 36.21 23.49C36.59 23.87 36.82 24.34 36.9 24.85L37.79 24.85C38.98 24.85 40.1 25.31 40.95 26.16C41.44 26.65 42.09 26.92 42.79 26.92L45.1 26.92C45.76 26.92 46.39 26.67 46.88 26.21L48.78 24.43ZM34.89 24.82C34.78 24.71 34.63 24.65 34.48 24.65L29.52 24.65C29.37 24.65 29.22 24.71 29.11 24.82C28.91 25.02 28.94 25.25 28.95 25.35C28.97 25.44 29.05 25.66 29.31 25.77L32 26.84L34.69 25.77C34.95 25.66 35.03 25.44 35.05 25.35C35.06 25.25 35.09 25.02 34.89 24.82ZM17.44 62.12C17.09 61.86 16.75 61.57 16.44 61.25C16.01 60.82 15.63 60.35 15.29 59.86L13.19 59.86C11.83 59.86 10.61 60.72 10.16 62C10.16 62.01 10.15 62.04 10.17 62.08C10.2 62.12 10.24 62.12 10.26 62.12L17.44 62.12ZM53.84 62C53.39 60.72 52.17 59.86 50.81 59.86L48.71 59.86C48.37 60.35 47.99 60.82 47.56 61.25C47.25 61.57 46.91 61.86 46.56 62.12L53.74 62.12C53.76 62.12 53.8 62.12 53.83 62.08C53.85 62.04 53.84 62.01 53.84 62Z" />
			<path id="Layer" fill-rule="evenodd" class="shp0" d="M22.58 44.42L22.58 47.63L26.92 47.63L26.92 46.49C26.92 45.98 27.34 45.56 27.86 45.56C28.38 45.56 28.8 45.98 28.8 46.49L28.8 52.71C28.8 54.37 27.45 55.72 25.79 55.72L23.72 55.72C22.06 55.72 20.71 54.37 20.71 52.71L20.71 44.42C20.71 43.9 21.13 43.48 21.64 43.48C22.16 43.48 22.58 43.9 22.58 44.42ZM22.58 49.5L22.58 52.71C22.58 53.33 23.09 53.84 23.72 53.84L25.79 53.84C26.41 53.84 26.92 53.33 26.92 52.71L26.92 49.5L22.58 49.5Z" />
			<path id="Layer" fill-rule="evenodd" class="shp0" d="M37.08 46.49L37.08 47.63L41.42 47.63L41.42 44.42C41.42 43.9 41.84 43.48 42.36 43.48C42.87 43.48 43.29 43.9 43.29 44.42L43.29 52.71C43.29 54.37 41.94 55.72 40.28 55.72L38.21 55.72C36.55 55.72 35.2 54.37 35.2 52.71L35.2 46.49C35.2 45.98 35.62 45.56 36.14 45.56C36.66 45.56 37.08 45.98 37.08 46.49ZM37.08 49.5L37.08 52.71C37.08 53.33 37.59 53.84 38.21 53.84L40.28 53.84C40.91 53.84 41.42 53.33 41.42 52.71L41.42 49.5L37.08 49.5Z" />
		</g>
	</g>
</svg>